<svg xmlns="http://www.w3.org/2000/svg" viewBox="0 0 24 24"><defs></defs><title>list-to-do</title><path d="M21.207,4.5a1,1,0,0,1,.293.707V22.5a1,1,0,0,1-1,1H3.5a1,1,0,0,1-1-1V1.5a1,1,0,0,1,1-1H16.793A1,1,0,0,1,17.5.793Z" fill="none" stroke="currentColor" stroke-linecap="round" stroke-linejoin="round"></path><path d="M6,7.771,7.083,8.853a.5.5,0,0,0,.76-.062L10,5.771" fill="none" stroke="currentColor" stroke-linecap="round" stroke-linejoin="round"></path><line x1="13.5" y1="7.5" x2="17.5" y2="7.5" fill="none" stroke="currentColor" stroke-linecap="round" stroke-linejoin="round"></line><path d="M6,12.771l1.083,1.082a.5.5,0,0,0,.76-.062L10,10.771" fill="none" stroke="currentColor" stroke-linecap="round" stroke-linejoin="round"></path><line x1="13.5" y1="12.5" x2="17.5" y2="12.5" fill="none" stroke="currentColor" stroke-linecap="round" stroke-linejoin="round"></line><path d="M6,17.771l1.083,1.082a.5.5,0,0,0,.76-.062L10,15.771" fill="none" stroke="currentColor" stroke-linecap="round" stroke-linejoin="round"></path><line x1="13.5" y1="17.5" x2="17.5" y2="17.5" fill="none" stroke="currentColor" stroke-linecap="round" stroke-linejoin="round"></line></svg>