<svg xmlns="http://www.w3.org/2000/svg" viewBox="0 0 24 24"><defs></defs><title>lock</title><rect x="6.5" y="10.5" width="11" height="9" rx="1" ry="1" fill="none" stroke="currentColor" stroke-linecap="round" stroke-linejoin="round"></rect><line x1="12" y1="16.5" x2="12" y2="14" fill="none" stroke="currentColor" stroke-linecap="round" stroke-linejoin="round"></line><path d="M12,13.75a.25.25,0,1,1-.25.25.25.25,0,0,1,.25-.25" fill="none" stroke="currentColor" stroke-linecap="round" stroke-linejoin="round"></path><path d="M8.5,23.5h-7a1,1,0,0,1-1-1v-7" fill="none" stroke="currentColor" stroke-linecap="round" stroke-linejoin="round"></path><path d="M8.5.5h-7a1,1,0,0,0-1,1v7" fill="none" stroke="currentColor" stroke-linecap="round" stroke-linejoin="round"></path><path d="M15.5,23.5h7a1,1,0,0,0,1-1v-7" fill="none" stroke="currentColor" stroke-linecap="round" stroke-linejoin="round"></path><path d="M15.5.5h7a1,1,0,0,1,1,1v7" fill="none" stroke="currentColor" stroke-linecap="round" stroke-linejoin="round"></path><path d="M15.5,8a3.5,3.5,0,0,0-7,0v2.5h7Z" fill="none" stroke="currentColor" stroke-linecap="round" stroke-linejoin="round"></path></svg>