<svg xmlns="http://www.w3.org/2000/svg" fill="none" viewBox="0 0 24 24"><path stroke="currentColor" stroke-linecap="round" stroke-linejoin="round" d="M20 6.88003C19.2606 6.87942 18.5361 6.67265 17.9077 6.28296C17.2794 5.89327 16.7721 5.3361 16.443 4.67403C16.4134 4.61512 16.3725 4.56264 16.3225 4.51961C16.2726 4.47659 16.2146 4.44386 16.152 4.42332C16.0893 4.40278 16.0232 4.39483 15.9575 4.39993C15.8918 4.40503 15.8277 4.42307 15.769 4.45303C15.2216 4.73373 14.6152 4.8801 14 4.88003C12.9391 4.88003 11.9217 4.4586 11.1716 3.70845C10.4214 2.95831 10 1.94089 10 0.880027C10.0001 0.841348 9.9915 0.803141 9.97493 0.76819C9.95836 0.733239 9.9342 0.702426 9.90422 0.677995C9.87423 0.653564 9.83917 0.636132 9.80159 0.626969C9.76401 0.617806 9.72486 0.617142 9.687 0.625027C7.55563 1.06265 5.59215 2.09595 4.02459 3.60492C2.45703 5.11389 1.34971 7.03661 0.83125 9.14976C0.312787 11.2629 0.404449 13.4798 1.09559 15.5429C1.78673 17.6061 3.049 19.4308 4.73578 20.8052C6.42256 22.1796 8.46464 23.0473 10.6249 23.3075C12.7851 23.5677 14.9748 23.2097 16.9397 22.2751C18.9045 21.3405 20.564 19.8676 21.7252 18.0276C22.8865 16.1876 23.5019 14.0559 23.5 11.88C23.5003 10.0984 23.0814 8.34172 22.277 6.75203C22.2189 6.63659 22.1183 6.54816 21.9963 6.50528C21.8744 6.4624 21.7406 6.4684 21.623 6.52203C21.1142 6.75728 20.5605 6.87942 20 6.88003V6.88003Z"></path><path stroke="currentColor" stroke-linecap="round" stroke-linejoin="round" d="M8 10.88C9.10457 10.88 10 9.98457 10 8.88C10 7.77544 9.10457 6.88 8 6.88C6.89543 6.88 6 7.77544 6 8.88C6 9.98457 6.89543 10.88 8 10.88Z"></path><path stroke="currentColor" stroke-linecap="round" stroke-linejoin="round" d="M15 14.88C15.5523 14.88 16 14.4323 16 13.88C16 13.3277 15.5523 12.88 15 12.88C14.4477 12.88 14 13.3277 14 13.88C14 14.4323 14.4477 14.88 15 14.88Z"></path><path stroke="currentColor" stroke-linecap="round" stroke-linejoin="round" d="M9 18.88C10.1046 18.88 11 17.9846 11 16.88C11 15.7754 10.1046 14.88 9 14.88C7.89543 14.88 7 15.7754 7 16.88C7 17.9846 7.89543 18.88 9 18.88Z"></path><path stroke="currentColor" d="M4 13.13C3.86193 13.13 3.75 13.0181 3.75 12.88C3.75 12.7419 3.86193 12.63 4 12.63"></path><path stroke="currentColor" d="M4 13.13C4.13807 13.13 4.25 13.0181 4.25 12.88C4.25 12.7419 4.13807 12.63 4 12.63"></path><path stroke="currentColor" d="M16 10.13C15.8619 10.13 15.75 10.0181 15.75 9.88C15.75 9.74193 15.8619 9.63 16 9.63"></path><path stroke="currentColor" d="M16 10.13C16.1381 10.13 16.25 10.0181 16.25 9.88C16.25 9.74193 16.1381 9.63 16 9.63"></path><g><path stroke="currentColor" d="M15 19.13C14.8619 19.13 14.75 19.0181 14.75 18.88C14.75 18.7419 14.8619 18.63 15 18.63"></path><path stroke="currentColor" d="M15 19.13C15.1381 19.13 15.25 19.0181 15.25 18.88C15.25 18.7419 15.1381 18.63 15 18.63"></path></g></svg>