<svg id="Light" xmlns="http://www.w3.org/2000/svg" viewBox="0 0 24 24"><defs></defs><title>restaurant-food-truck</title><line x1="2.5" y1="12" x2="8.5" y2="12" fill="none" stroke="currentColor" stroke-linecap="round" stroke-linejoin="round"></line><circle cx="5" cy="19.5" r="2" fill="none" stroke="currentColor" stroke-linecap="round" stroke-linejoin="round"></circle><circle cx="19" cy="19.5" r="2" fill="none" stroke="currentColor" stroke-linecap="round" stroke-linejoin="round"></circle><path d="M3,19.5H1A.5.5,0,0,1,.5,19V14.207a.5.5,0,0,1,.146-.353L2.5,12,4.714,8.014A1,1,0,0,1,5.588,7.5H8.5V3A.5.5,0,0,1,9,2.5H23a.5.5,0,0,1,.5.5V19a.5.5,0,0,1-.5.5H21" fill="none" stroke="currentColor" stroke-linecap="round" stroke-linejoin="round"></path><line x1="7" y1="19.5" x2="17" y2="19.5" fill="none" stroke="currentColor" stroke-linecap="round" stroke-linejoin="round"></line><line x1="8.5" y1="7.5" x2="8.5" y2="17.5" fill="none" stroke="currentColor" stroke-linecap="round" stroke-linejoin="round"></line><line x1="0.5" y1="17.5" x2="23.5" y2="17.5" fill="none" stroke="currentColor" stroke-linecap="round" stroke-linejoin="round"></line><polygon points="10.5 8.5 21.5 8.5 19.5 5.5 12.5 5.5 10.5 8.5" fill="none" stroke="currentColor" stroke-linecap="round" stroke-linejoin="round"></polygon><line x1="10.5" y1="12.5" x2="21.5" y2="12.5" fill="none" stroke="currentColor" stroke-linecap="round" stroke-linejoin="round"></line><rect x="11.5" y="8.5" width="9" height="6" fill="none" stroke="currentColor" stroke-linecap="round" stroke-linejoin="round"></rect></svg>