<svg xmlns="http://www.w3.org/2000/svg" viewBox="0 0 24 24"><defs></defs><title>gift-box</title><path d="M23.5,10.5a1,1,0,0,1-1,1H1.5a1,1,0,0,1-1-1v-2a1,1,0,0,1,1-1h21a1,1,0,0,1,1,1Z" fill="none" stroke="currentColor" stroke-linecap="round" stroke-linejoin="round"></path><path d="M21.5,22.5a1,1,0,0,1-1,1H3.5a1,1,0,0,1-1-1v-11h19Z" fill="none" stroke="currentColor" stroke-linecap="round" stroke-linejoin="round"></path><line x1="8.5" y1="7.5" x2="8.5" y2="23.5" fill="none" stroke="currentColor" stroke-linecap="round" stroke-linejoin="round"></line><line x1="15.5" y1="23.5" x2="15.5" y2="7.5" fill="none" stroke="currentColor" stroke-linecap="round" stroke-linejoin="round"></line><path d="M17.427,3.84C16.663,4.605,13,5.5,13,5.5s.9-3.663,1.66-4.427A1.957,1.957,0,1,1,17.427,3.84Z" fill="none" stroke="currentColor" stroke-linecap="round" stroke-linejoin="round"></path><path d="M6.573,3.84C7.337,4.605,11,5.5,11,5.5s-.9-3.663-1.66-4.427A1.957,1.957,0,0,0,6.573,3.84Z" fill="none" stroke="currentColor" stroke-linecap="round" stroke-linejoin="round"></path></svg>