<svg xmlns="http://www.w3.org/2000/svg" viewBox="0 0 24 24"><defs></defs><title>login-lock</title><rect x="13.5" y="10.5" width="9" height="7" rx="1" ry="1" fill="none" stroke="currentColor" stroke-linecap="round" stroke-linejoin="round"></rect><line x1="18" y1="15.5" x2="18" y2="13" fill="none" stroke="currentColor" stroke-linecap="round" stroke-linejoin="round"></line><path d="M15,10.5v-1a3,3,0,0,1,6,0v1" fill="none" stroke="currentColor" stroke-linecap="round" stroke-linejoin="round"></path><path d="M18,12.75h0a.25.25,0,0,1,.25.25h0a.25.25,0,0,1-.25.25h0a.25.25,0,0,1-.25-.25h0a.25.25,0,0,1,.25-.25" fill="none" stroke="currentColor" stroke-linecap="round" stroke-linejoin="round"></path><path d="M10.5,2.5H18a.5.5,0,0,1,.5.5V4.5" fill="none" stroke="currentColor" stroke-linecap="round" stroke-linejoin="round"></path><path d="M18.5,19.521V21a.5.5,0,0,1-.5.5H10.5" fill="none" stroke="currentColor" stroke-linecap="round" stroke-linejoin="round"></path><path d="M1.5,21.223a.5.5,0,0,0,.392.488l8,1.777A.5.5,0,0,0,10.5,23V1A.5.5,0,0,0,9.892.512l-8,1.778a.5.5,0,0,0-.392.488Z" fill="none" stroke="currentColor" stroke-linecap="round" stroke-linejoin="round"></path><circle cx="7" cy="12" r="1.5" fill="none" stroke="currentColor" stroke-linecap="round" stroke-linejoin="round"></circle></svg>