<svg xmlns="http://www.w3.org/2000/svg" viewBox="0 0 24 24"><g><path d="M23,12.5a.5.5,0,0,1,.5.52C23.19,18.74,18.16,21.5,12,21.5S.79,18.74.51,13A.5.5,0,0,1,1,12.5Z" fill="none" stroke="currentColor" stroke-linecap="round" stroke-linejoin="round"></path><path d="M16.49,20.94l.74,1.88a.5.5,0,0,1-.47.68H7.23a.5.5,0,0,1-.47-.68l.73-1.88" fill="none" stroke="currentColor" stroke-linecap="round" stroke-linejoin="round"></path><line x1="19.99" y1="0.5" x2="17.49" y2="10.5" fill="none" stroke="currentColor" stroke-linecap="round" stroke-linejoin="round"></line><line x1="23.49" y1="0.5" x2="18.99" y2="10.5" fill="none" stroke="currentColor" stroke-linecap="round" stroke-linejoin="round"></line><path d="M21.42,9.68A2.51,2.51,0,0,1,23,12.49" fill="none" stroke="currentColor" stroke-linecap="round" stroke-linejoin="round"></path><path d="M1.49,12.5a4,4,0,0,1,4-4,3.69,3.69,0,0,1,1.56.31A4.5,4.5,0,0,1,16,9.5" fill="none" stroke="currentColor" stroke-linecap="round" stroke-linejoin="round"></path></g></svg>