<svg id="Light" xmlns="http://www.w3.org/2000/svg" viewBox="0 0 24 24"><defs></defs><title>appliances-slow-cooker</title><path d="M7.514.5c-1.732,1.5,1.732,2.5,0,4" fill="none" stroke="currentColor" stroke-linecap="round" stroke-linejoin="round"></path><path d="M12,.5C10.268,2,13.732,3,12,4.5" fill="none" stroke="currentColor" stroke-linecap="round" stroke-linejoin="round"></path><path d="M16.5.5c-1.732,1.5,1.732,2.5,0,4" fill="none" stroke="currentColor" stroke-linecap="round" stroke-linejoin="round"></path><line x1="20.5" y1="14.5" x2="23.5" y2="14.5" fill="none" stroke="currentColor" stroke-linecap="round" stroke-linejoin="round"></line><line x1="0.5" y1="14.5" x2="3.5" y2="14.5" fill="none" stroke="currentColor" stroke-linecap="round" stroke-linejoin="round"></line><line x1="10.5" y1="7.5" x2="10.5" y2="9.563" fill="none" stroke="currentColor" stroke-linecap="round" stroke-linejoin="round"></line><line x1="13.5" y1="9.563" x2="13.5" y2="7.5" fill="none" stroke="currentColor" stroke-linecap="round" stroke-linejoin="round"></line><line x1="9.5" y1="7.5" x2="14.5" y2="7.5" fill="none" stroke="currentColor" stroke-linecap="round" stroke-linejoin="round"></line><circle cx="12" cy="18.506" r="1.506" fill="none" stroke="currentColor" stroke-linecap="round" stroke-linejoin="round"></circle><line x1="16" y1="17" x2="17" y2="17" fill="none" stroke="currentColor" stroke-linecap="round" stroke-linejoin="round"></line><line x1="16" y1="20" x2="17" y2="20" fill="none" stroke="currentColor" stroke-linecap="round" stroke-linejoin="round"></line><path d="M20.5,13.5v8a2,2,0,0,1-2,2H5.5a2,2,0,0,1-2-2v-8S5.167,9.494,12,9.494,20.5,13.5,20.5,13.5Z" fill="none" stroke="currentColor" stroke-linecap="round" stroke-linejoin="round"></path><line x1="3.5" y1="13.5" x2="20.5" y2="13.5" fill="none" stroke="currentColor" stroke-linecap="round" stroke-linejoin="round"></line></svg>