<svg id="Light" xmlns="http://www.w3.org/2000/svg" viewBox="0 0 24 24"><defs></defs><title>cake-birthday</title><line x1="0.5" y1="23.5" x2="23.5" y2="23.5" fill="none" stroke="currentColor" stroke-linecap="round" stroke-linejoin="round"></line><path d="M1.5,13v6.5a2.005,2.005,0,0,0,2,2h17a2.005,2.005,0,0,0,2-2V13" fill="none" stroke="currentColor" stroke-linecap="round" stroke-linejoin="round"></path><path d="M7,3A1.5,1.5,0,0,1,4,3,5.567,5.567,0,0,1,5.109.688a.5.5,0,0,1,.782,0A5.557,5.557,0,0,1,7,3Z" fill="none" stroke="currentColor" stroke-linecap="round" stroke-linejoin="round"></path><path d="M20,3a1.5,1.5,0,0,1-3,0A5.567,5.567,0,0,1,18.109.688a.5.5,0,0,1,.782,0A5.557,5.557,0,0,1,20,3Z" fill="none" stroke="currentColor" stroke-linecap="round" stroke-linejoin="round"></path><path d="M13.5,3a1.5,1.5,0,0,1-3,0A5.567,5.567,0,0,1,11.609.688a.5.5,0,0,1,.782,0A5.557,5.557,0,0,1,13.5,3Z" fill="none" stroke="currentColor" stroke-linecap="round" stroke-linejoin="round"></path><path d="M13,10.5H11V7a.5.5,0,0,1,.5-.5h1A.5.5,0,0,1,13,7Z" fill="none" stroke="currentColor" stroke-linecap="round" stroke-linejoin="round"></path><path d="M6.5,10.5h-2V7A.5.5,0,0,1,5,6.5H6a.5.5,0,0,1,.5.5Z" fill="none" stroke="currentColor" stroke-linecap="round" stroke-linejoin="round"></path><path d="M19.5,10.5h-2V7a.5.5,0,0,1,.5-.5h1a.5.5,0,0,1,.5.5Z" fill="none" stroke="currentColor" stroke-linecap="round" stroke-linejoin="round"></path><path d="M22.5,13a2.625,2.625,0,0,1-5.25,0A2.625,2.625,0,0,1,12,13a2.625,2.625,0,0,1-5.25,0A2.625,2.625,0,0,1,1.5,13V11.5a1,1,0,0,1,1-1h19a1,1,0,0,1,1,1Z" fill="none" stroke="currentColor" stroke-linecap="round" stroke-linejoin="round"></path></svg>