<svg xmlns="http://www.w3.org/2000/svg" fill="none" viewBox="0 0 24 24"><path stroke="currentColor" stroke-linecap="round" stroke-linejoin="round" d="M22.4543 1.66034V3.65164"></path><path stroke="currentColor" stroke-linecap="round" stroke-linejoin="round" d="M23.45 2.65601H21.4587"></path><path stroke="currentColor" stroke-linecap="round" stroke-linejoin="round" d="M4.53261 11.6168V13.6081"></path><path stroke="currentColor" stroke-linecap="round" stroke-linejoin="round" d="M5.52826 12.6125H3.53696"></path><path stroke="currentColor" stroke-linecap="round" stroke-linejoin="round" d="M20.463 19.5821V21.5734"></path><path stroke="currentColor" stroke-linecap="round" stroke-linejoin="round" d="M21.4587 20.5777H19.4674"></path><path stroke="currentColor" stroke-linecap="round" stroke-linejoin="round" d="M13.4935 3.65161V5.64292"></path><path stroke="currentColor" stroke-linecap="round" stroke-linejoin="round" d="M14.4891 4.64728H12.4978"></path><path stroke="currentColor" stroke-linecap="round" stroke-linejoin="round" d="M0.550003 0.664673C0.550003 0.664673 10.5065 9.12772 23.45 10.6212"></path><path stroke="currentColor" stroke-linecap="round" stroke-linejoin="round" d="M3.03914 2.52557V8.69862C3.03919 8.78867 3.06366 8.87702 3.10994 8.95426C3.15623 9.0315 3.2226 9.09474 3.30199 9.13724C3.38138 9.17974 3.47081 9.19992 3.56075 9.19562C3.6507 9.19131 3.73779 9.1627 3.81276 9.11281L8.64167 5.89387"></path><path stroke="currentColor" stroke-linecap="round" stroke-linejoin="round" d="M8.99911 6.07404L10.3343 12.7449C10.3516 12.8312 10.3915 12.9113 10.4499 12.9772C10.5083 13.043 10.5831 13.0922 10.6667 13.1197C10.7502 13.1472 10.8396 13.1521 10.9257 13.1338C11.0118 13.1156 11.0915 13.0748 11.1567 13.0157L15.7028 8.88377"></path><path stroke="currentColor" stroke-linecap="round" stroke-linejoin="round" d="M16.1628 9.03314L17.2939 14.6884C17.3116 14.7767 17.3529 14.8585 17.4133 14.9251C17.4738 14.9917 17.5512 15.0407 17.6373 15.0669C17.7234 15.093 17.815 15.0953 17.9023 15.0736C17.9897 15.0518 18.0694 15.0068 18.1332 14.9433L22.5669 10.5067"></path><path stroke="currentColor" stroke-linecap="round" stroke-linejoin="round" d="M8.46643 17.4932L12.3654 22.2414C12.4213 22.3094 12.4943 22.3614 12.5768 22.392C12.6593 22.4227 12.7485 22.4309 12.8353 22.4158C12.922 22.4007 13.0032 22.3629 13.0705 22.3062C13.1379 22.2495 13.189 22.176 13.2187 22.0931L15.5087 15.6851C10.7029 17.3607 5.63885 18.1744 0.550003 18.0886"></path><path stroke="currentColor" stroke-linecap="round" stroke-linejoin="round" d="M7.9905 17.5758L6.05197 23.0051C6.02163 23.0899 5.96883 23.1649 5.89921 23.2221C5.82958 23.2793 5.74574 23.3165 5.65663 23.3298C5.56751 23.3431 5.47646 23.332 5.39319 23.2976C5.30991 23.2632 5.23753 23.2068 5.18376 23.1345L1.44011 18.1055"></path><path stroke="currentColor" d="M1.54565 14.8527C1.40818 14.8527 1.29674 14.7413 1.29674 14.6038C1.29674 14.4664 1.40818 14.3549 1.54565 14.3549"></path><path stroke="currentColor" d="M1.54566 14.8527C1.68313 14.8527 1.79457 14.7413 1.79457 14.6038C1.79457 14.4664 1.68313 14.3549 1.54566 14.3549"></path><path stroke="currentColor" d="M19.4674 5.89187C19.3299 5.89187 19.2185 5.78043 19.2185 5.64296C19.2185 5.50549 19.3299 5.39404 19.4674 5.39404"></path><path stroke="currentColor" d="M19.4674 5.89187C19.6049 5.89187 19.7163 5.78043 19.7163 5.64296C19.7163 5.50549 19.6049 5.39404 19.4674 5.39404"></path><g><path stroke="currentColor" d="M23.2011 18.3375C23.0636 18.3375 22.9522 18.226 22.9522 18.0886C22.9522 17.9511 23.0636 17.8397 23.2011 17.8397"></path><path stroke="currentColor" d="M23.2011 18.3375C23.3386 18.3375 23.45 18.226 23.45 18.0886C23.45 17.9511 23.3386 17.8397 23.2011 17.8397"></path></g></svg>