<svg xmlns="http://www.w3.org/2000/svg" viewBox="0 0 24 24"><defs></defs><title>house-modern</title><line x1="0.5" y1="21.5" x2="23.5" y2="21.5" fill="none" stroke="currentColor" stroke-linecap="round" stroke-linejoin="round"></line><line x1="0.5" y1="13.5" x2="10.5" y2="9.5" fill="none" stroke="currentColor" stroke-linecap="round" stroke-linejoin="round"></line><line x1="2.5" y1="12.719" x2="2.5" y2="21.5" fill="none" stroke="currentColor" stroke-linecap="round" stroke-linejoin="round"></line><line x1="9" y1="2.5" x2="23.5" y2="11.5" fill="none" stroke="currentColor" stroke-linecap="round" stroke-linejoin="round"></line><line x1="21.5" y1="10.281" x2="21.5" y2="21.5" fill="none" stroke="currentColor" stroke-linecap="round" stroke-linejoin="round"></line><path d="M18.5,8.407V5a.5.5,0,0,1,.5-.5h1a.5.5,0,0,1,.5.5V9.641" fill="none" stroke="currentColor" stroke-linecap="round" stroke-linejoin="round"></path><path d="M19,21.5a.5.5,0,0,0,.5-.5V18a.5.5,0,0,0-.5-.5H13a.5.5,0,0,0-.5.5v3a.5.5,0,0,0,.5.5" fill="none" stroke="currentColor" stroke-linecap="round" stroke-linejoin="round"></path><line x1="16.5" y1="17.5" x2="16.5" y2="21.5" fill="none" stroke="currentColor" stroke-linecap="round" stroke-linejoin="round"></line><circle cx="15.001" cy="11.5" r="1.5" fill="none" stroke="currentColor" stroke-linecap="round" stroke-linejoin="round"></circle><path d="M8,21.5a.5.5,0,0,0,.5-.5V17a.5.5,0,0,0-.5-.5H5a.5.5,0,0,0-.5.5v4a.5.5,0,0,0,.5.5" fill="none" stroke="currentColor" stroke-linecap="round" stroke-linejoin="round"></path><line x1="10.5" y1="3.453" x2="10.5" y2="21.5" fill="none" stroke="currentColor" stroke-linecap="round" stroke-linejoin="round"></line></svg>