<svg id="Light" xmlns="http://www.w3.org/2000/svg" viewBox="0 0 24 24"><defs></defs><title>seasoning-food</title><path d="M20.491,14.1A.5.5,0,0,0,20,13.5H1a.5.5,0,0,0-.491.6,9.13,9.13,0,0,0,5.9,6.87.5.5,0,0,1,.291.67A3.43,3.43,0,0,0,6.415,23a.5.5,0,0,0,.5.5h7.17a.5.5,0,0,0,.5-.5,3.43,3.43,0,0,0-.284-1.365.5.5,0,0,1,0-.4.506.506,0,0,1,.291-.272A9.13,9.13,0,0,0,20.491,14.1Z" fill="none" stroke="currentColor" stroke-linecap="round" stroke-linejoin="round"></path><path d="M23.41,4.729a1,1,0,0,1-.5,1.324l-5.69,2.584a.749.749,0,0,1-.993-.372l-1.861-4.1a.749.749,0,0,1,.372-.993L20.432.59a1,1,0,0,1,1.324.5Z" fill="none" stroke="currentColor" stroke-linecap="round" stroke-linejoin="round"></path><line x1="10.179" y1="6.874" x2="11.441" y2="6.062" fill="none" stroke="currentColor" stroke-linecap="round" stroke-linejoin="round"></line><line x1="12.179" y1="10.874" x2="12.941" y2="10.062" fill="none" stroke="currentColor" stroke-linecap="round" stroke-linejoin="round"></line><line x1="9.941" y1="9.562" x2="11.008" y2="8.635" fill="none" stroke="currentColor" stroke-linecap="round" stroke-linejoin="round"></line></svg>