<svg id="Light" xmlns="http://www.w3.org/2000/svg" viewBox="0 0 24 24"><defs></defs><title>smart-light-connect</title><path d="M12.014,19.5V17l-1-1" fill="none" stroke="currentColor" stroke-linecap="round" stroke-linejoin="round"></path><line x1="12.014" y1="17" x2="13.014" y2="16" fill="none" stroke="currentColor" stroke-linecap="round" stroke-linejoin="round"></line><path d="M6.71,10.7a7.5,7.5,0,0,1,10.607,0" fill="none" stroke="currentColor" stroke-linecap="round" stroke-linejoin="round"></path><path d="M3.882,7.868a11.5,11.5,0,0,1,16.263,0" fill="none" stroke="currentColor" stroke-linecap="round" stroke-linejoin="round"></path><path d="M1.054,5.04a15.5,15.5,0,0,1,21.92,0" fill="none" stroke="currentColor" stroke-linecap="round" stroke-linejoin="round"></path><path d="M12.014,12.5a3.75,3.75,0,0,0-3.75,3.75,3.639,3.639,0,0,0,1.75,3.25h4a3.641,3.641,0,0,0,1.75-3.25A3.75,3.75,0,0,0,12.014,12.5Z" fill="none" stroke="currentColor" stroke-linecap="round" stroke-linejoin="round"></path><path d="M14.014,20.5a2,2,0,0,1-4,0v-1h4Z" fill="none" stroke="currentColor" stroke-linecap="round" stroke-linejoin="round"></path><line x1="12.014" y1="22.5" x2="12.014" y2="23.5" fill="none" stroke="currentColor" stroke-linecap="round" stroke-linejoin="round"></line></svg>