<svg id="Light" xmlns="http://www.w3.org/2000/svg" viewBox="0 0 24 24"><defs></defs><title>party-confetti</title><path d="M16.483,12.216a4.967,4.967,0,0,1,7.017,0" fill="none" stroke="currentColor" stroke-linecap="round" stroke-linejoin="round"></path><path d="M11.768,7.518a4.961,4.961,0,0,0,0-7.018" fill="none" stroke="currentColor" stroke-linecap="round" stroke-linejoin="round"></path><line x1="18.075" y1="8.249" x2="21.584" y2="7.081" fill="none" stroke="currentColor" stroke-linecap="round" stroke-linejoin="round"></line><line x1="15.736" y1="5.912" x2="16.906" y2="2.402" fill="none" stroke="currentColor" stroke-linecap="round" stroke-linejoin="round"></line><path d="M7.965,4.771a.25.25,0,0,1,.25.25" fill="none" stroke="currentColor" stroke-linecap="round" stroke-linejoin="round"></path><path d="M7.715,5.021a.25.25,0,0,1,.25-.25" fill="none" stroke="currentColor" stroke-linecap="round" stroke-linejoin="round"></path><path d="M7.965,5.271a.25.25,0,0,1-.25-.25" fill="none" stroke="currentColor" stroke-linecap="round" stroke-linejoin="round"></path><path d="M8.215,5.021a.25.25,0,0,1-.25.25" fill="none" stroke="currentColor" stroke-linecap="round" stroke-linejoin="round"></path><path d="M15.465,7.771a.25.25,0,0,1,.25.25" fill="none" stroke="currentColor" stroke-linecap="round" stroke-linejoin="round"></path><path d="M15.215,8.021a.25.25,0,0,1,.25-.25" fill="none" stroke="currentColor" stroke-linecap="round" stroke-linejoin="round"></path><path d="M15.465,8.271a.25.25,0,0,1-.25-.25" fill="none" stroke="currentColor" stroke-linecap="round" stroke-linejoin="round"></path><path d="M15.715,8.021a.25.25,0,0,1-.25.25" fill="none" stroke="currentColor" stroke-linecap="round" stroke-linejoin="round"></path><path d="M19.465,13.771a.25.25,0,0,1,.25.25" fill="none" stroke="currentColor" stroke-linecap="round" stroke-linejoin="round"></path><path d="M19.215,14.021a.25.25,0,0,1,.25-.25" fill="none" stroke="currentColor" stroke-linecap="round" stroke-linejoin="round"></path><path d="M19.465,14.271a.25.25,0,0,1-.25-.25" fill="none" stroke="currentColor" stroke-linecap="round" stroke-linejoin="round"></path><path d="M19.715,14.021a.25.25,0,0,1-.25.25" fill="none" stroke="currentColor" stroke-linecap="round" stroke-linejoin="round"></path><path d="M19.965,3.771a.25.25,0,0,1,.25.25" fill="none" stroke="currentColor" stroke-linecap="round" stroke-linejoin="round"></path><path d="M19.715,4.021a.25.25,0,0,1,.25-.25" fill="none" stroke="currentColor" stroke-linecap="round" stroke-linejoin="round"></path><path d="M19.965,4.271a.25.25,0,0,1-.25-.25" fill="none" stroke="currentColor" stroke-linecap="round" stroke-linejoin="round"></path><path d="M20.215,4.021a.25.25,0,0,1-.25.25" fill="none" stroke="currentColor" stroke-linecap="round" stroke-linejoin="round"></path><ellipse cx="11.502" cy="12.498" rx="2.5" ry="5.5" transform="translate(-5.469 11.794) rotate(-45)" fill="none" stroke="currentColor" stroke-linecap="round" stroke-linejoin="round"></ellipse><path d="M15.145,16.575,2.484,23.341A1.348,1.348,0,0,1,.66,21.516L7.425,8.855" fill="none" stroke="currentColor" stroke-linecap="round" stroke-linejoin="round"></path></svg>