<svg xmlns="http://www.w3.org/2000/svg" viewBox="0 0 24 24"><defs></defs><title>love-gift-flowers</title><path d="M3.71,3.71C1.13,2.4-.525,5.223,1.222,6.97c1.437,1.437,5.787.869,6.511.763.106-.724.674-5.074-.763-6.511C5.223-.525,2.4,1.13,3.71,3.71Z" fill="none" stroke="currentColor" stroke-linecap="round" stroke-linejoin="round"></path><path d="M14.98,4.068a2.908,2.908,0,0,0-.668-1.253c-1.748-1.747-4.573-.091-3.26,2.489-2.58-1.313-4.236,1.512-2.488,3.26a2.887,2.887,0,0,0,1.252.667" fill="none" stroke="currentColor" stroke-linecap="round" stroke-linejoin="round"></path><path d="M4.068,14.98a2.908,2.908,0,0,1-1.253-.668c-1.747-1.748-.091-4.573,2.489-3.26-1.313-2.58,1.512-4.236,3.26-2.488a2.887,2.887,0,0,1,.667,1.252" fill="none" stroke="currentColor" stroke-linecap="round" stroke-linejoin="round"></path><path d="M18.787,16.631c2.035-4.131.1-9.152-2.118-13.337a.5.5,0,0,0-.795-.12l-12.7,12.7a.5.5,0,0,0,.12.8c4.185,2.214,9.206,4.153,13.337,2.118" fill="none" stroke="currentColor" stroke-linecap="round" stroke-linejoin="round"></path><path d="M18.787,16.631l-2.156,2.156,2.549,4.461a.5.5,0,0,0,.788.106l1.693-1.693,1.693-1.693a.5.5,0,0,0-.106-.788Z" fill="none" stroke="currentColor" stroke-linecap="round" stroke-linejoin="round"></path><polyline points="17 23.5 16 21 13.5 22.5" fill="none" stroke="currentColor" stroke-linecap="round" stroke-linejoin="round"></polyline></svg>